<svg xmlns="http://www.w3.org/2000/svg" fill="none" viewBox="0 0 217 236"><path fill="#3083FF" d="M80.4 20.1V0H60.3v20.1H40.2v20h20v20.2h20.2V40.2h20V20h-20Z"/><path fill="#083B87" d="M40.2 60.3V40.2H20v20H0v20.2h20.1v20h20v-20h20.2V60.3H40.2Z"/><path fill="#000" d="m12 134.5 9.5 26h.4l-.4-15v-11h8.3v35.4H18.2l-10-26.6H8l.3 15.3V170H0v-35.4h12Zm37.2 36.1c-5 0-8.6-1.1-11-3.3-2.3-2.2-3.5-5.5-3.5-9.7v-2.8c0-4.2 1.1-7.4 3.3-9.6 2.3-2.2 5.5-3.3 9.7-3.3 2.8 0 5.2.5 7 1.4 2 1 3.4 2.4 4.4 4.2 1 1.8 1.4 4 1.4 6.4v1a21.7 21.7 0 0 1-.4 4.1h-7.6a61.5 61.5 0 0 0 .2-5.6 6 6 0 0 0-.6-2.8c-.3-.8-.9-1.4-1.6-1.8-.7-.4-1.6-.6-2.8-.6-1.7 0-3 .4-3.7 1.4-.8.9-1.2 2.2-1.2 3.8v5.4c0 .7.2 1.3.4 2a4 4 0 0 0 1.2 1.6c.6.5 1.4.9 2.4 1.1a24.3 24.3 0 0 0 13.2-1.4l-.6 6.4a18 18 0 0 1-4.5 1.5 27 27 0 0 1-5.7.6Zm-10-11.6v-5.2h19.2v5.2H39.2Zm29 10.9-5.5-27.2h8.6l3.4 21.2h.5l3.3-20.6h10.3l3.4 20.6h.5l3.4-21.2h8.5L99 169.9H87l-2.8-17.3-.4-3h-.4l-.5 3-2.8 17.3h-12Zm51.6-8.5c-4.4 0-7.7-.8-9.9-2.4a8 8 0 0 1-3.3-6.9v-.3a9 9 0 0 1 1.3-5 8.7 8.7 0 0 1 4.2-3.3c1.9-.7 4.3-1.2 7.2-1.3l14.5-.7v6l-7.2-.2v.3c1.2.2 2.2.5 3 1 .8.5 1.4 1.1 1.8 2 .4.7.6 1.7.6 2.8v.2c0 2.5-1 4.5-3 5.8-2 1.3-5 2-9.2 2Zm-.5 12.9h.9c1.3 0 2.4-.1 3.2-.3a4 4 0 0 0 1.8-.7c.4-.3.6-.8.6-1.3 0-.7-.3-1.1-.8-1.4a7 7 0 0 0-2.5-.6l-8-.8h1.9c-.6 0-1 .2-1.5.4a3 3 0 0 0-1 .8c-.1.4-.3.8-.3 1.3 0 .6.3 1 .7 1.4.4.4 1 .7 1.8.9.9.2 2 .3 3.2.3Zm-.4 6.2c-2.7 0-5-.2-7-.7-1.9-.4-3.3-1-4.3-2s-1.5-2.2-1.5-3.8c0-1.1.2-2 .7-2.7.4-.8 1-1.3 2-1.7.8-.4 1.8-.7 3-.8v-.2a7 7 0 0 1-3.3-1.4 3.4 3.4 0 0 1-1.1-2.7c0-.9.1-1.6.5-2.1.4-.6 1-1 1.7-1.3a8 8 0 0 1 2.7-.6v-1l6.3 1.7h-1.9c-.6 0-1 0-1.3.2-.3.2-.4.4-.4.7 0 .5.2.8.6 1l2.1.4 6.5.7c3.1.4 5.5 1.2 7 2.3 1.5 1.2 2.3 3 2.3 5.5v.2c0 1.9-.5 3.4-1.6 4.6a9.3 9.3 0 0 1-4.6 2.8c-2 .6-4.4.9-7.3.9h-1Zm.6-24.8c1 0 2-.1 2.7-.4a3.3 3.3 0 0 0 2.1-3.3v-.3c0-.8-.1-1.4-.5-2-.3-.5-.9-1-1.6-1.2a7 7 0 0 0-2.7-.5c-1.2 0-2 .2-2.8.5-.7.3-1.3.7-1.6 1.2-.3.6-.5 1.3-.5 2v.3c0 .8.2 1.5.5 2 .4.6 1 1 1.6 1.3.8.3 1.7.4 2.8.4Zm30.7 14.9c-5 0-8.6-1.1-11-3.3-2.3-2.2-3.5-5.5-3.5-9.7v-2.8c0-4.2 1.1-7.4 3.3-9.6 2.2-2.2 5.5-3.3 9.7-3.3 2.8 0 5.2.5 7 1.4 2 1 3.4 2.4 4.3 4.2 1 1.8 1.5 4 1.5 6.4v1a22 22 0 0 1-.4 4.1h-7.6a60.7 60.7 0 0 0 .1-5.6c0-1.1-.1-2-.5-2.8-.3-.8-.9-1.4-1.6-1.8-.7-.4-1.7-.6-2.8-.6-1.7 0-3 .4-3.8 1.4-.7.9-1.1 2.2-1.1 3.8v5.4c0 .7.1 1.3.4 2a4 4 0 0 0 1.2 1.6c.6.5 1.4.9 2.4 1.1a24.3 24.3 0 0 0 13.2-1.4l-.7 6.4a18 18 0 0 1-4.4 1.5 27 27 0 0 1-5.7.6Zm-10-11.6v-5.2h19.2v5.2h-19.2Zm43.3 10.9v-16c0-1 0-1.9-.3-2.6-.3-.7-.7-1.3-1.3-1.7-.7-.4-1.5-.6-2.5-.6-.9 0-1.7.2-2.3.5-.7.3-1.3.7-1.7 1.3-.5.5-.8 1-1 1.7l-1.3-4h1.4a10 10 0 0 1 1.5-3.2c.6-1 1.6-1.8 2.8-2.4a10 10 0 0 1 4.4-.9c2 0 3.7.4 5 1.2 1.3.8 2.3 2 2.9 3.5.6 1.6 1 3.5 1 5.8V170h-8.6Zm-17.4 0v-27.2h8.4l-.3 6.8.3.8v19.6h-8.4Zm42.1.6a13 13 0 0 1-5.8-1 6.5 6.5 0 0 1-3-3.4c-.7-1.4-1-3.2-1-5.4v-15.2h8.4v13.9c0 1.3.3 2.3.9 2.9.6.6 1.7 1 3.4 1a12 12 0 0 0 5-1.2l-.7 7a19.2 19.2 0 0 1-7.3 1.4Zm-13.5-21v-6.7H216l-.8 6.6h-20.4Zm3.8-6.1v-7l8.3-.8-.3 7.8h-8ZM4 224.8v-4h8.6c3.2 0 5.5-.8 7.1-2.5 1.6-1.7 2.4-4.1 2.4-7.3v-7.9c0-3.2-.8-5.6-2.4-7.3a9.3 9.3 0 0 0-7-2.6H4v-3.8h8.8c4.6 0 8 1.2 10.4 3.5 2.3 2.4 3.5 5.8 3.5 10.2v8a14 14 0 0 1-3.5 10.1c-2.4 2.4-5.8 3.6-10.4 3.6H4.1Zm-3 0v-35.4h4.5v35.4H1Zm32.3 0v-27h4.5v27h-4.5Zm2.2-31.5c-.9 0-1.6-.2-2-.7a3 3 0 0 1-.7-2v-.2c0-.8.2-1.5.6-2 .5-.5 1.2-.7 2.1-.7 1 0 1.6.2 2.1.7.5.5.7 1.2.7 2v.2c0 .8-.2 1.5-.7 2-.5.5-1.2.7-2 .7Zm20.2 23.4c-3.7 0-6.5-.8-8.5-2.4-2-1.6-2.9-4-2.9-7v-.6c0-1.9.4-3.5 1.2-4.9.7-1.4 2-2.4 3.6-3.2 1.7-.8 4-1.3 6.6-1.3l13.8-.5v3.6l-8.1-.3v.2c1.2.3 2.3.7 3 1.3a5 5 0 0 1 1.9 2.4c.4 1 .6 2 .6 3.3v.6c0 2.8-1 5-2.9 6.5-1.8 1.5-4.6 2.3-8.3 2.3Zm-.2 14.9h.7c1.6 0 3-.2 4.2-.4 1.2-.3 2.1-.6 2.8-1.2.6-.5 1-1.2 1-2.1v-.1c0-1-.4-1.9-1.2-2.4a8 8 0 0 0-3.8-1l-7.6-.7 1.2-.1c-1 .1-2 .4-2.7.7-.8.3-1.4.8-1.8 1.3a3 3 0 0 0-.7 2v.1c0 1 .3 1.7 1 2.3.6.6 1.5 1 2.7 1.2 1.2.2 2.6.4 4.2.4Zm-.2 3.5a28 28 0 0 1-6.3-.6c-1.8-.4-3.2-1-4.1-2a5 5 0 0 1-1.5-3.8 4.9 4.9 0 0 1 2.9-4.6c1-.4 2-.7 3-.8v-.2a6.8 6.8 0 0 1-3.3-1.3 3.4 3.4 0 0 1-.6-4.3c.3-.5.8-1 1.4-1.2.7-.3 1.5-.5 2.6-.6v-.5l5.1 1.3-2.1-.1c-1.3 0-2.1.2-2.6.5-.5.2-.7.7-.7 1.2 0 .7.3 1.1 1 1.5.7.3 1.8.5 3.5.7l6.5.7c3 .3 5 1 6.3 2a6 6 0 0 1 2 4.8v.1a6 6 0 0 1-1.5 4.2c-1 1-2.4 1.8-4.3 2.3-1.8.5-4 .7-6.5.7h-.8Zm.4-21.7c1.5 0 2.8-.3 3.8-.7 1-.5 1.8-1.2 2.3-2 .6-1 .8-2.1.8-3.4v-.7c0-1.3-.2-2.4-.7-3.3a4.7 4.7 0 0 0-2.3-2 9 9 0 0 0-3.8-.8h-.2c-1.7 0-3 .3-4 .8s-1.9 1.2-2.3 2.1a7 7 0 0 0-.7 3.2v.7c0 1.3.2 2.4.8 3.3a5 5 0 0 0 2.3 2c1 .5 2.4.8 4 .8Zm18 11.4v-27H78v27h-4.4Zm2.2-31.5c-1 0-1.6-.2-2-.7a3 3 0 0 1-.7-2v-.2c0-.8.2-1.5.6-2 .5-.5 1.2-.7 2.1-.7 1 0 1.6.2 2 .7.5.5.8 1.2.8 2v.2c0 .8-.3 1.5-.7 2-.5.5-1.2.7-2 .7Zm19.5 32c-2 0-3.8-.3-5-1a5.7 5.7 0 0 1-2.8-2.8 11 11 0 0 1-.9-4.7v-17h4.5v16.4c0 1.8.4 3.1 1.2 4 .8.8 2.2 1.2 4 1.2a13.3 13.3 0 0 0 6-1.4l-.4 3.9a16.6 16.6 0 0 1-6.6 1.4Zm-13-23.6v-3.6h19.8l-.4 3.6H82.3Zm4.4-3.1V191l4.5-.6-.2 8.2h-4.3Zm36.6 26.2.2-6.6-.1-.7v-10.2c0-2.2-.6-3.8-1.7-4.8-1-1.1-2.9-1.6-5.3-1.6a17.4 17.4 0 0 0-9.6 2.8l.4-3.9a19.6 19.6 0 0 1 10-2.7c1.9 0 3.5.3 4.9.7a7.9 7.9 0 0 1 5.1 5.3c.4 1.2.6 2.6.6 4.2v17.5h-4.5Zm-9.3.5c-2.6 0-4.7-.6-6.1-1.9a7.4 7.4 0 0 1-2.2-5.6v-.8a7 7 0 0 1 2.3-5.6c1.6-1.2 4-2 7.4-2.5l8.6-1.2.2 3.2-8.2 1.2c-2.1.3-3.6.8-4.5 1.5-.9.7-1.3 1.8-1.3 3.2v.4c0 1.4.4 2.5 1.3 3.3.9.7 2.2 1.1 4 1.1a9 9 0 0 0 4-.8 7.3 7.3 0 0 0 4-5.2l.7 3h-.9a9 9 0 0 1-1.4 3.4c-.7 1-1.7 1.8-3 2.4-1.3.6-2.9 1-4.9 1Zm20.9-.5V188h4.4v36.7h-4.5Z"/></svg>