<svg xmlns="http://www.w3.org/2000/svg" fill="none" viewBox="0 0 290 82"><path fill="#fff" d="M65.2 16.3V0H49v16.3H32.6v16.3H49V49h16.3V32.6h16.3V16.3z"/><path fill="#fff" d="M32.6 49V32.5H16.3V49H0v16.3h16.3v16.3h16.3V65.2H49V49zM120.2 30v-5.6h6q2.6 0 3.9-1.4 1.2-1.5 1.2-4v-5.5q0-2.5-1.2-4-1.3-1.4-3.9-1.4h-6V2.6h6.2q6 0 8.8 2.8 3 2.9 3 8.1V19q0 5.3-3 8.2-2.9 2.8-8.8 2.8zm-4.7 0V2.6h6.6V30zM141.5 30V9h6.6v21zm3.3-23Q143 7 142 6q-.8-.8-.8-2.2v-.2q0-1.5.8-2.2.9-.9 2.7-.9t2.6.9.9 2.2v.2a3 3 0 0 1-.9 2.3q-.8.8-2.6.8M159.5 30.5a21 21 0 0 1-8-1.4l-.5-5.6q1.6.8 3.6 1.3t4.4.5q1.8 0 2.6-.4t.8-1.2q0-.7-.4-1t-1.4-.7q-.9-.3-2.7-.7-2.7-.7-4.2-1.5-1.6-1-2.2-2-.7-1.4-.7-3v-.2q0-3 2.3-4.7 2.3-1.5 6.5-1.5a20 20 0 0 1 7.7 1.5l.6 5.1a20 20 0 0 0-7.4-1.6q-1.4 0-2 .2l-1 .5q-.3.3-.3.8t.3 1l1.3.6 2.6.8q2.7.5 4.3 1.3 1.6.7 2.4 1.9t.7 3v.3q0 3.5-2.3 5a12 12 0 0 1-7 1.7M180.6 30.6q-5 0-7.4-2.7a11 11 0 0 1-2.5-7.4v-2.2q0-4.7 2.5-7.3 2.3-2.7 7.4-2.7a14 14 0 0 1 6 1.4l.6 5.4-2.3-1q-1.3-.3-2.8-.4-2.5 0-3.6 1.2t-1.2 3.5v1.8q0 2.4 1.2 3.6t3.7 1.2a10 10 0 0 0 5.2-1.3L187 29q-1.1.6-2.7 1t-3.6.5M188.7 30l7.8-27.4h10.1l7.8 27.4h-6.7l-5.9-23h-.4l-6 23zm6.7-6.5v-5.2h12.3v5.2zM220.2 30l-7.5-27.4h7L225 25h.5L231 2.6h7L230.4 30zM259.7 30.5q-1.8 0-3.2-.6-1.3-.6-2.2-1.7-.8-1.1-1.2-2.5h-1.4l1.2-4q0 1.8.8 3 .7 1 2 1.7 1.2.6 2.7.6 2.4 0 3.7-1.4 1.3-1.5 1.3-4.2v-4q0-2.7-1.3-4-1.2-1.4-3.7-1.4-1.5 0-2.6.5a5 5 0 0 0-3 3.7l-.9-2.9h1.2q.4-1.3 1.2-2.4t2.1-1.7 3.5-.7q3.8 0 5.7 2.4t2 6.9V21q0 4.5-2 7-2 2.4-5.9 2.4m-10.9-.5V1.6h4.2v6.7l-.1 6v10.8l.1 4.9zM281 26.3l-2.1 1L284.8 9h4.3l-9.6 28.4h-4.2l3.3-9.9 1.9 1.6h-4.8l-6.5-20h4.3l5.2 17.2zM122.5 45.5l10.1 22.7h.3l-.2-11.8v-11h4.2V73h-6.3l-10.3-23h-.2l.2 12.3V73H116V45.5zM151.3 73.4q-5 0-7.5-2.4t-2.5-6.9v-3.4q0-4.5 2.3-6.9 2.4-2.4 6.8-2.4 3 0 5 1a7 7 0 0 1 3 3.2q1.1 2 1 4.8v.8l-.1 2.9h-3.9v-4a7 7 0 0 0-.5-2.9 4 4 0 0 0-1.7-1.8q-1-.6-2.8-.6-2.5 0-3.7 1.4a6 6 0 0 0-1.2 4v4.4q0 1.2.3 2.1.4 1 1.2 1.7t2 1.1q1.2.4 3 .4 2 0 3.8-.6t3.4-1.3l-.4 3.6q-1.4.8-3.3 1.3-2 .5-4.2.5m-7.8-9.3v-3.2h14.9v3.2zM166.4 73l-4.9-21h4.3l3.8 17.9h.3l3.9-17.4h5.8l3.9 17.4h.3l3.8-18h4.3l-5 21h-6.3l-3.1-14.5-.6-2.9h-.4l-.6 2.9-3.1 14.5zM203.2 66.6q-4.4 0-6.8-2a7 7 0 0 1-2.3-5.3v-.4q0-2.1.9-3.8a6 6 0 0 1 3-2.5q2-1 5.2-1l11-.4v3.3l-5.9-.3v.3q1.2.3 2 1t1.3 1.6.5 2.4v.3a6 6 0 0 1-2.3 5q-2.2 1.8-6.6 1.8m-.2 11h.6q1.8 0 3-.2 1.3-.3 2-.8t.7-1.5-.8-1.7q-.7-.6-2.7-.7l-6-.6h1q-1 0-1.8.5-.8.3-1.2.9-.5.5-.5 1.4 0 1 .7 1.6t2 .9 3 .2m-.2 3.4q-3 0-5-.5a7 7 0 0 1-3.2-1.6 4 4 0 0 1-1.2-3q0-1.2.6-2 .5-1 1.5-1.4.9-.6 2.1-.7v-.2q-1.5-.3-2.3-1-.8-.8-.8-2 0-.8.4-1.4.3-.6 1-1 .8-.4 2-.4v-.5l4.4 1h-1.6q-1.4 0-1.8.3a1 1 0 0 0-.5.9q0 .7.7 1l2.5.5 5.1.5q3.5.4 5 1.7t1.5 3.9q0 2-1.2 3.4-1 1.3-3.3 1.9a19 19 0 0 1-5.2.6zm.3-17.5a7 7 0 0 0 2.8-.5q1-.4 1.7-1.5.5-1 .5-2.3v-.3q0-1.4-.5-2.4t-1.7-1.4-2.7-.5h-.1q-1.8 0-2.9.5t-1.6 1.5-.5 2.3v.3q0 1.5.5 2.3.6 1 1.7 1.5t2.8.5M225.5 73.4q-5 0-7.5-2.4t-2.5-6.9v-3.4q0-4.5 2.3-6.9 2.4-2.4 6.8-2.4 3 0 5 1a7 7 0 0 1 3 3.2q1 2 1 4.8v.8l-.2 2.9h-3.8v-4a7 7 0 0 0-.5-2.9 4 4 0 0 0-1.7-1.8q-1.1-.6-2.8-.6-2.6 0-3.7 1.4a6 6 0 0 0-1.3 4v4.4q0 1.2.4 2.1t1.1 1.7q1 .7 2 1.1 1.5.4 3.1.4 2 0 3.8-.6t3.3-1.3l-.4 3.6q-1.3.8-3.3 1.3-1.8.5-4.1.5m-7.8-9.3v-3.2h14.9v3.2zM251.5 73V60q0-1.6-.5-2.7-.3-1-1.3-1.7t-2.6-.7q-1.6 0-2.7.6a5 5 0 0 0-1.8 1.5q-.7 1-1 2.2l-.7-3h1q.3-1.4 1.1-2.4t2.3-1.7q1.3-.6 3.4-.6 2.5 0 4 .9t2.3 2.7q.6 1.8.7 4.4v13.4zm-14 0V52h4.3l-.2 4.8.2.3v15.8zM268 73.3q-2.4 0-4-.7-1.5-.8-2.2-2.3t-.7-3.9V53.6h4.2V66q0 1.8.9 2.8t3 .9a11 11 0 0 0 4.4-1l-.4 3.6q-1 .5-2.3.8zm-10.2-17.8v-3.3h15.6l-.4 3.3zm3.4-3v-5.7l4.1-.5-.1 6.2z"/></svg>