<svg xmlns="http://www.w3.org/2000/svg" fill="none" viewBox="0 0 351 101"><path fill="#3083FF" d="M80.4 20.2V0H60.3v20H40.2v20.2h20v20h20.2v-20h20v-20h-20Z"/><path fill="#083B87" d="M40.2 60.4V40.3H20v20H0v20.2h20.1v20h20v-20h20.2V60.4H40.2Z"/><path fill="#000" d="m146.4 0 9.6 26h.4l-.4-15V0h8.2v35.4h-11.6l-9.9-26.5h-.4l.4 15.2v11.3h-8.2V0h12Zm37.3 36c-5 0-8.6-1-11-3.2-2.3-2.2-3.5-5.4-3.5-9.7v-2.8c0-4.2 1.1-7.3 3.3-9.6 2.2-2.2 5.5-3.3 9.7-3.3 2.8 0 5.2.5 7 1.5 2 1 3.4 2.3 4.3 4 1 1.9 1.5 4 1.5 6.5v1a21.6 21.6 0 0 1-.4 4.1H187a60.7 60.7 0 0 0 .1-5.6c0-1.1-.1-2-.5-2.8-.3-.8-.9-1.4-1.6-1.8-.7-.4-1.7-.6-2.8-.6-1.7 0-3 .5-3.7 1.4-.8.9-1.2 2.2-1.2 3.9v5.3c0 .7.2 1.4.4 2a4 4 0 0 0 1.2 1.7c.6.4 1.4.8 2.4 1a24.4 24.4 0 0 0 13.2-1.4l-.7 6.4a18 18 0 0 1-4.4 1.5 27 27 0 0 1-5.7.6Zm-10-11.5v-5.2h19.2v5.2h-19.2Zm28.9 10.9-5.4-27.2h8.6l3.3 21.2h.5L213 9h10.3l3.4 20.5h.5l3.4-21.2h8.5l-5.5 27.2h-12l-2.8-17.3-.4-3h-.4l-.5 3-2.8 17.3h-12Zm51.6-8.4c-4.3 0-7.6-.9-9.8-2.5a8 8 0 0 1-3.3-6.8v-.4a9 9 0 0 1 1.3-5 8.7 8.7 0 0 1 4.2-3.2c1.8-.8 4.2-1.3 7.2-1.4l14.5-.7v6l-7.2-.2v.3c1.2.2 2.2.5 3 1a5 5 0 0 1 1.8 2c.4.7.6 1.7.6 2.8v.2c0 2.6-1 4.5-3 5.8-2 1.4-5 2-9.3 2Zm-.4 12.8h.9c1.3 0 2.4 0 3.2-.3a4 4 0 0 0 1.8-.7c.4-.3.6-.7.6-1.2v-.1c0-.6-.3-1.1-.8-1.4-.6-.3-1.4-.4-2.5-.5l-8-.8 1.8-.1c-.5 0-1 .2-1.4.4a3 3 0 0 0-1 .9c-.2.3-.3.7-.3 1.2 0 .6.2 1 .6 1.4.4.4 1 .7 1.9.9.8.2 2 .3 3.2.3Zm-.4 6.2c-2.7 0-5-.2-7-.7-1.9-.4-3.4-1-4.4-2a5 5 0 0 1-1.5-3.8c0-1.1.3-2 .7-2.7.5-.7 1.2-1.3 2-1.7.9-.4 2-.7 3-.8v-.2a7 7 0 0 1-3.2-1.4 3.4 3.4 0 0 1-1.2-2.7c0-.9.2-1.6.6-2.1.4-.6 1-1 1.7-1.3a8 8 0 0 1 2.7-.6v-.9l6.3 1.6h-1.9c-.6 0-1 0-1.4.2a1 1 0 0 0-.3.7c0 .5.2.8.6 1l2.1.4 6.5.7a16 16 0 0 1 7 2.3c1.5 1.2 2.3 3 2.3 5.5v.2a7 7 0 0 1-1.6 4.6 9.3 9.3 0 0 1-4.6 2.8c-2 .6-4.5.9-7.3.9h-1Zm.6-24.8c1 0 2-.1 2.7-.4a3.3 3.3 0 0 0 2.1-3.3v-.3c0-.8-.2-1.4-.5-2-.4-.5-.9-1-1.6-1.2a7 7 0 0 0-2.7-.5 7 7 0 0 0-2.8.5c-.7.3-1.3.7-1.6 1.2-.4.6-.5 1.3-.5 2v.3c0 .8.1 1.5.5 2 .4.6 1 1 1.6 1.3.8.3 1.7.4 2.8.4ZM284.7 36c-5 0-8.6-1-11-3.2-2.3-2.2-3.5-5.4-3.5-9.7v-2.8c0-4.2 1-7.3 3.3-9.6 2.2-2.2 5.4-3.3 9.7-3.3 2.8 0 5.2.5 7 1.5 2 1 3.4 2.3 4.3 4 1 1.9 1.5 4 1.5 6.5v1a22 22 0 0 1-.4 4.1H288a62 62 0 0 0 .1-5.6c0-1.1-.2-2-.5-2.8a4 4 0 0 0-1.6-1.8 6 6 0 0 0-2.8-.6c-1.7 0-3 .5-3.8 1.4-.7.9-1.1 2.2-1.1 3.9v5.3c0 .7.1 1.4.4 2a4 4 0 0 0 1.2 1.7c.6.4 1.4.8 2.4 1a24.4 24.4 0 0 0 13.2-1.4l-.7 6.4a18 18 0 0 1-4.4 1.5 27 27 0 0 1-5.7.6Zm-10-11.5v-5.2h19.2v5.2h-19.2ZM318 35.4v-16c0-1-.1-1.9-.4-2.6-.2-.7-.7-1.3-1.3-1.7-.6-.3-1.4-.5-2.5-.5a4.7 4.7 0 0 0-4 1.7l-1 1.7-1.2-4h1.4a10 10 0 0 1 1.4-3.2c.7-1 1.7-1.8 2.8-2.4a10 10 0 0 1 4.5-.8c2 0 3.7.4 5 1.1 1.3.8 2.2 2 2.9 3.5.6 1.6.9 3.5.9 5.8v17.4H318Zm-17.5 0V8.2h8.4l-.2 6.8.3.8v19.6h-8.5Zm42.2.6a13 13 0 0 1-5.8-1 6.5 6.5 0 0 1-3.1-3.4c-.6-1.4-1-3.2-1-5.4V11h8.5v14c0 1.3.3 2.3.9 3 .6.5 1.7.8 3.3.8a12 12 0 0 0 5.1-1l-.7 7-3.3 1c-1.2.2-2.5.3-4 .3Zm-13.5-21V8.2h21.2l-.8 6.6h-20.4Zm3.8-6V1.8l8.3-.8-.3 7.8h-8ZM138.6 90.3v-3.9h8.5c3.2 0 5.5-.8 7-2.5 1.7-1.8 2.5-4.2 2.5-7.4v-7.9c0-3.2-.8-5.6-2.4-7.3-1.6-1.7-4-2.5-7-2.5h-8.7v-3.9h8.8c4.6 0 8 1.2 10.4 3.5 2.3 2.4 3.5 5.8 3.5 10.2v8c0 4.4-1.2 7.8-3.5 10.1-2.4 2.4-5.8 3.6-10.4 3.6h-8.7Zm-3.1 0V54.9h4.5v35.4h-4.5Zm32.3 0v-27h4.5v27h-4.5Zm2.2-31.5c-1 0-1.6-.2-2-.7a3 3 0 0 1-.7-2V56c0-1 .2-1.6.6-2 .5-.5 1.2-.8 2.1-.8 1 0 1.6.3 2 .7.5.5.8 1.2.8 2v.2a3 3 0 0 1-.7 2c-.5.5-1.2.7-2 .7Zm20.2 23.4c-3.7 0-6.5-.8-8.5-2.4-2-1.6-2.9-4-2.9-7v-.6c0-1.9.4-3.5 1.1-4.9.8-1.4 2-2.4 3.7-3.2 1.7-.8 3.9-1.2 6.6-1.3l13.8-.5V66l-8.2-.3v.2a8 8 0 0 1 3.1 1.3c.9.7 1.5 1.4 1.8 2.4.5 1 .7 2 .7 3.3v.6c0 2.9-1 5-2.9 6.6a13.5 13.5 0 0 1-8.3 2.2ZM190 97h.6a18 18 0 0 0 4.3-.4c1.2-.2 2.1-.6 2.8-1.2.6-.5 1-1.2 1-2.1v-.1c0-1-.4-1.8-1.2-2.4a8 8 0 0 0-3.8-1l-7.6-.7h1.2c-1 0-2 .3-2.7.6-.8.4-1.4.8-1.8 1.3a3 3 0 0 0-.7 2v.1c0 1 .3 1.7 1 2.3.6.6 1.5 1 2.7 1.2 1.2.3 2.6.4 4.2.4Zm-.2 3.6a29 29 0 0 1-6.4-.7 8 8 0 0 1-4-2 5 5 0 0 1-1.5-3.7V94c0-1 .3-2 .8-2.7.5-.8 1.2-1.3 2.1-1.8 1-.4 2-.7 3-.8v-.2a6.8 6.8 0 0 1-3.3-1.3 3 3 0 0 1-1.1-2.5c0-.7.1-1.3.5-1.8.3-.5.8-1 1.4-1.2.7-.3 1.5-.5 2.5-.6v-.5L189 82h-2.1c-1.3 0-2.1 0-2.6.4-.5.3-.7.7-.7 1.3 0 .6.3 1 1 1.4.7.3 1.8.5 3.5.7l6.5.7c2.9.3 5 1 6.3 2a6 6 0 0 1 2 4.8v.2c0 1.6-.5 3-1.5 4-1 1.2-2.5 2-4.3 2.4-1.8.5-4 .8-6.5.8h-.8Zm.3-21.8c1.6 0 2.9-.2 3.9-.7a5 5 0 0 0 2.3-2c.6-1 .8-2 .8-3.4V72c0-1.3-.2-2.4-.8-3.3a4.7 4.7 0 0 0-2.2-2 9 9 0 0 0-3.8-.7h-.2a9 9 0 0 0-4 .7 4.1 4.1 0 0 0-2.3 2.2 7 7 0 0 0-.7 3.1v.7c0 1.3.2 2.4.7 3.3a5 5 0 0 0 2.4 2c1 .5 2.4.8 4 .8Zm18 11.5v-27h4.5v27h-4.5Zm2.3-31.5c-1 0-1.6-.2-2-.7a3 3 0 0 1-.8-2V56c0-1 .3-1.6.7-2 .5-.5 1.2-.8 2-.8 1 0 1.7.3 2.2.7.4.5.7 1.2.7 2v.2a3 3 0 0 1-.7 2c-.5.5-1.2.7-2.1.7Zm19.5 32c-2 0-3.8-.3-5-1A5.7 5.7 0 0 1 222 87c-.6-1.2-.9-2.8-.9-4.7v-17h4.5v16.5c0 1.7.4 3 1.2 3.9.8.8 2.2 1.2 4 1.2a13.3 13.3 0 0 0 6-1.4l-.4 3.9a16.5 16.5 0 0 1-6.6 1.4Zm-13.1-23.6v-3.6h19.9l-.4 3.6h-19.5Zm4.5-3.1v-7.6l4.4-.6-.2 8.2h-4.2ZM258 90.3l.1-6.6-.1-.7V72.8c0-2.2-.6-3.8-1.7-4.8s-2.9-1.6-5.3-1.6a17.4 17.4 0 0 0-9.6 2.8l.4-3.9a19.5 19.5 0 0 1 10-2.7c1.9 0 3.5.3 4.9.7a7.9 7.9 0 0 1 5.1 5.3c.4 1.2.6 2.6.6 4.2v17.5h-4.5Zm-9.4.6c-2.6 0-4.7-.7-6.1-2-1.5-1.3-2.2-3.2-2.2-5.6v-.8c0-2.5.8-4.3 2.3-5.5 1.6-1.3 4-2.1 7.4-2.6l8.5-1.2.3 3.2-8.3 1.2c-2 .3-3.5.8-4.4 1.5-.9.7-1.3 1.8-1.3 3.2v.4c0 1.4.4 2.5 1.3 3.3.9.7 2.2 1.1 4 1.1a9 9 0 0 0 4-.8 7.3 7.3 0 0 0 4-5.2l.7 3h-.9a9 9 0 0 1-1.4 3.4c-.7 1-1.7 1.8-3 2.4-1.3.7-2.9 1-4.9 1Zm20.8-.6V53.6h4.5v36.7h-4.5Z"/></svg>