<svg xmlns="http://www.w3.org/2000/svg" fill="none" viewBox="0 0 332 82"><path fill="#3083FF" d="M65.2 16.3V0H49v16.3H32.6v16.3H49V49h16.3V32.6h16.3V16.3H65.2Z"/><path fill="#083B87" d="M32.6 49V32.5H16.3V49H0v16.3h16.3v16.3h16.3V65.2H49V49H32.6Z"/><path fill="#000" d="m126.2 2.5 7.4 20.2h.3l-.3-11.6V2.5h6.4V30h-9l-7.7-20.6h-.2l.3 11.9V30H117V2.5h9.2ZM147.7 30 143 2.6h6.8l2.6 18.8.5 3h.4l.5-3 2.8-18.2h8.2l2.8 18.2.5 3h.3l.5-3 2.7-18.8h6.7L173.4 30H164l-2.4-16.5-.8-4.8h-.3l-.8 4.8-2.3 16.5h-9.6Zm41.5.6c-2 0-3.8-.4-5.3-1.3a8.2 8.2 0 0 1-3.1-4 16 16 0 0 1-1-6.1v-4.9c0-4 1-7 3.2-9.2 2.2-2 5.4-3.1 9.6-3.1a21.6 21.6 0 0 1 9 1.9l.5 5.6-3.6-1.3c-1.3-.3-2.9-.5-4.6-.5-2.5 0-4.4.5-5.5 1.7-1.2 1.1-1.8 2.9-1.8 5.3v4.5c0 1.8.4 3.2 1.3 4.2.8 1 2.1 1.5 4 1.5a6 6 0 0 0 2-.3c.6-.3 1.1-.6 1.5-1l1-1.3v-5.2l.8 2H192v-5.2h10.8v11.5h-6.6c-.2 1-.5 2-1 2.7-.6.8-1.3 1.4-2.3 1.8-.9.5-2.1.7-3.7.7Zm7.3-6.2h6.3V30h-6.5l.2-5.6Zm23.7 5.6v-5.6h6c1.7 0 3-.5 3.8-1.4.9-1 1.3-2.3 1.3-4v-5.5c0-1.7-.4-3-1.3-4-.8-1-2.1-1.4-3.8-1.4h-6V2.6h6.2c3.9 0 6.8.9 8.8 2.8 1.9 1.9 2.9 4.6 2.9 8V19c0 3.5-1 6.3-3 8.2-1.9 1.9-4.8 2.8-8.7 2.8h-6.2Zm-4.7 0V2.6h6.6V30h-6.6Zm26 0V9h6.5v21h-6.5Zm3.3-23c-1.3 0-2.2-.3-2.7-.8-.6-.6-.9-1.4-.9-2.3v-.2c0-1 .3-1.7.9-2.3.5-.5 1.4-.8 2.7-.8 1.2 0 2 .3 2.6.8.6.6.9 1.3.9 2.3v.2a3 3 0 0 1-.9 2.3c-.6.5-1.4.8-2.6.8Zm16.6 16.4c-3.4 0-6-.6-7.7-1.9a6.2 6.2 0 0 1-2.5-5.3V16a7 7 0 0 1 1-4c.7-1 1.8-1.9 3.2-2.4 1.5-.6 3.3-1 5.6-1l11.2-.6v4.6l-5.6-.1v.2c1 .2 1.8.4 2.4.8a4 4 0 0 1 1.4 1.5c.3.6.5 1.3.5 2.2v.2a5 5 0 0 1-2.4 4.5c-1.5 1-4 1.5-7.1 1.5Zm-.4 10h.7c1 0 1.8 0 2.5-.2a3 3 0 0 0 1.4-.6c.3-.2.4-.5.4-1s-.2-.8-.6-1c-.4-.2-1-.4-1.9-.5l-6.2-.6h1.4a2 2 0 0 0-1.1.3l-.7.6c-.2.3-.3.6-.3 1 0 .5.2.8.5 1.1.3.3.8.5 1.4.7l2.5.2Zm-.3 4.8c-2.1 0-4-.1-5.4-.5a7 7 0 0 1-3.4-1.6 3.8 3.8 0 0 1-1.2-2.9c0-.9.2-1.6.6-2.1.3-.6.8-1 1.5-1.3.7-.3 1.5-.5 2.4-.6V29a7 7 0 0 1-2.6-1 3 3 0 0 1-.9-2.2 2.8 2.8 0 0 1 1.7-2.6c.6-.3 1.3-.4 2.2-.5V22l4.8 1.2H259c-.5 0-.8 0-1 .2-.3.1-.4.3-.4.6s.2.6.5.7l1.7.3 5 .6c2.4.3 4.2.9 5.4 1.8 1.2 1 1.8 2.3 1.8 4.3 0 1.6-.4 2.8-1.2 3.7-.9 1-2 1.7-3.6 2.1-1.5.5-3.4.7-5.7.7h-.8Zm.4-19.2c.9 0 1.6-.1 2.1-.3A2.6 2.6 0 0 0 265 16a3 3 0 0 0-.4-1.6c-.3-.4-.7-.7-1.3-1-.5-.1-1.2-.3-2-.3-1 0-1.7.2-2.2.4-.6.2-1 .5-1.3 1a3 3 0 0 0-.4 1.5v.2c0 .6.2 1.2.4 1.6.3.4.8.8 1.3 1a6 6 0 0 0 2.1.3Zm13.3 11V9h6.6v21h-6.6Zm3.3-23c-1.2 0-2.1-.3-2.7-.8-.5-.6-.8-1.4-.8-2.3v-.2c0-1 .3-1.7.8-2.3.6-.5 1.5-.8 2.7-.8 1.2 0 2.1.3 2.7.8.5.6.8 1.3.8 2.3v.2a3 3 0 0 1-.8 2.3c-.6.5-1.5.8-2.7.8Zm15.7 23.5c-1.9 0-3.4-.3-4.5-.9a5 5 0 0 1-2.4-2.5c-.5-1.1-.7-2.5-.7-4.2V11.1h6.5v10.7c0 1 .3 1.8.7 2.3.5.5 1.4.7 2.6.7a9.3 9.3 0 0 0 4-.8l-.6 5.4a15 15 0 0 1-5.6 1ZM283 14V9h16.4l-.6 5.1H283Zm2.9-4.6V4l6.5-.6-.3 6H286ZM314.3 30l.2-5.3-.2-.3v-7.5c0-1.1-.4-2-1-2.6-.7-.5-1.9-.8-3.5-.8-1.4 0-2.8.2-4 .5l-3.6 1.3.5-5.1a20 20 0 0 1 8.3-1.8c1.9 0 3.4.2 4.7.6 1.2.4 2.2 1 3 1.8a7 7 0 0 1 1.6 2.9c.3 1 .5 2.3.5 3.6V30h-6.5Zm-6.7.5c-2.1 0-3.7-.5-4.8-1.6a6 6 0 0 1-1.7-4.5v-.6c0-2 .7-3.6 2-4.6 1.2-1 3.3-1.7 6-2l5.8-.8.3 4-5 .7c-1 .1-1.7.4-2.1.7-.5.3-.7.9-.7 1.5v.2c0 .6.2 1.1.7 1.5.4.4 1 .6 2 .6.8 0 1.4-.1 2-.4a4 4 0 0 0 2.3-2.3l1 2.7h-1.1c-.3 1-.6 1.8-1.1 2.5a7 7 0 0 1-2 1.8c-1 .4-2.2.6-3.6.6Zm16.8-.5V1.6h6.6V30h-6.6ZM115.5 73l8.6-27.5h5.6l8.6 27.5h-3.6l-7.5-25h-.5L119 73h-3.6Zm5.2-8.1v-3h12.5v3h-12.5Zm34.7 8.1-8.3-9.8H145v-2.7h2.2l8-8.5h4l-9.4 10.1v-.8l9.9 11.7h-4.2Zm-13.6 0V44.5h3.4V73h-3.4Zm28.4.4c-1.6 0-3-.2-4-.7-1-.5-1.6-1.3-2-2.2a9 9 0 0 1-.8-3.7V53.5h3.5v12.9c0 1.3.3 2.3 1 3 .6.6 1.6 1 3.1 1a10.3 10.3 0 0 0 4.6-1.1l-.3 3a12.8 12.8 0 0 1-5.2 1.1ZM160 55.1v-2.8h15.4l-.3 2.8h-15Zm3.5-2.5v-5.8l3.4-.5-.1 6.3h-3.3ZM179.2 73V52h3.4v21h-3.4Zm1.7-24.4c-.7 0-1.2-.2-1.6-.6-.3-.4-.5-.9-.5-1.6 0-.7.2-1.3.5-1.6.4-.4.9-.6 1.6-.6.7 0 1.3.2 1.6.6.4.3.6.9.6 1.5v.1c0 .7-.2 1.2-.6 1.6-.3.4-.9.6-1.6.6Zm15.9 24.8c-3.2 0-5.6-.7-7.2-2.3a9 9 0 0 1-2.4-6.7v-3.7c0-3 .7-5.3 2.2-6.9 1.5-1.6 3.7-2.4 6.6-2.4 2 0 3.6.4 4.9 1.1a7 7 0 0 1 3 3.1c.6 1.3 1 3 1 4.8v.8a14.7 14.7 0 0 1-.3 2.7h-3.2a46.4 46.4 0 0 0 0-3.7 8 8 0 0 0-.5-3.2c-.4-.9-1-1.6-1.9-2-.8-.5-1.8-.7-3-.7-1.8 0-3.2.5-4 1.5-1 1-1.4 2.6-1.4 4.5v4.5c0 .8.1 1.6.4 2.3a4.7 4.7 0 0 0 3.3 3 13 13 0 0 0 10.2-1.6l-.4 3a13.4 13.4 0 0 1-7.3 1.9ZM189 64v-2.6h14.9V64h-15Zm30.3 9.4c-1.3 0-2.4-.2-3.3-.6-1-.5-1.8-1-2.3-1.9-.6-.8-1-1.7-1.2-2.8h-1.2l1-3.2a6 6 0 0 0 1 3.1 5 5 0 0 0 2 1.9c1 .4 2 .6 3 .6 1.8 0 3.1-.5 4-1.5 1-1 1.4-2.6 1.4-4.6v-4c0-2-.5-3.5-1.4-4.5-1-1-2.3-1.5-4-1.5-1.1 0-2 .2-2.9.6a5.9 5.9 0 0 0-3.1 4.1l-.8-2.4h1c.2-1 .6-1.8 1.1-2.6.6-.8 1.4-1.4 2.3-1.9a8 8 0 0 1 3.6-.7c2.5 0 4.4.8 5.7 2.4 1.4 1.6 2 3.8 2 6.8v3.5c0 3-.7 5.3-2 6.9-1.3 1.5-3.3 2.3-5.9 2.3ZM209 73V44.5h3.5v6.8l-.2 6V68l.2 5H209Zm31 .5c-3 0-5.3-.8-6.9-2.4-1.5-1.7-2.3-4-2.3-7v-3.2c0-3 .8-5.4 2.3-7a9.4 9.4 0 0 1 6.9-2.5c3 0 5.3.9 6.8 2.5 1.6 1.6 2.3 4 2.3 7V64c0 3-.7 5.3-2.3 7-1.5 1.6-3.8 2.4-6.8 2.4Zm0-2.8c1.8 0 3.2-.6 4.2-1.7 1-1 1.5-2.7 1.5-4.8v-3.5c0-2.1-.5-3.7-1.5-4.8-1-1-2.4-1.6-4.2-1.6-1.9 0-3.3.5-4.3 1.6s-1.4 2.7-1.4 4.8v3.5c0 2.1.5 3.7 1.4 4.8 1 1.1 2.4 1.7 4.3 1.7Zm13.6 2.3V44.5h3.5V73h-3.5Zm21.3 0 .1-5.1v-8.5c0-1.7-.5-3-1.4-3.7-.8-.9-2.2-1.3-4-1.3-1.6 0-3 .2-4.2.7-1.3.4-2.4.9-3.4 1.5l.4-3a15.1 15.1 0 0 1 11.5-1.5 6.1 6.1 0 0 1 4 4c.3 1 .4 2 .4 3.3V73H275Zm-7.2.4c-2.1 0-3.7-.5-4.8-1.5a5.5 5.5 0 0 1-1.7-4.3V67c0-2 .6-3.4 1.8-4.4a12 12 0 0 1 5.7-2l6.7-1 .2 2.6-6.4 1a8 8 0 0 0-3.5 1.1c-.7.6-1 1.4-1 2.5v.3c0 1.1.3 2 1 2.5.7.6 1.7 1 3 1a7 7 0 0 0 3.2-.7 5.6 5.6 0 0 0 3.1-4l.6 2.3h-.7a7 7 0 0 1-1.1 2.6 9 9 0 0 1-2.3 2c-1 .4-2.3.6-3.8.6Zm23.6-6.7c-2.8 0-5-.6-6.5-1.9a6.5 6.5 0 0 1-2.3-5.3v-.6c0-1.4.3-2.7.9-3.7a6 6 0 0 1 2.8-2.6c1.3-.6 3-1 5.1-1l10.7-.3V54l-6.3-.2v.2c1 .2 1.8.5 2.4 1 .6.5 1.1 1.1 1.4 1.8.3.8.5 1.6.5 2.6v.5c0 2.2-.7 3.9-2.2 5-1.5 1.2-3.6 1.8-6.5 1.8Zm-.1 11.5h.5c1.3 0 2.4 0 3.3-.3 1-.1 1.6-.4 2.1-.9.5-.4.8-1 .8-1.6 0-.9-.3-1.5-.9-2-.6-.4-1.6-.6-3-.8l-5.9-.5h1c-.8 0-1.5.3-2.1.5-.6.3-1.1.6-1.4 1-.4.5-.6 1-.6 1.6 0 .8.3 1.4.8 1.8.5.5 1.2.8 2.1 1 1 .2 2 .2 3.3.2ZM291 81c-1.9 0-3.5-.1-5-.5a6.6 6.6 0 0 1-3-1.5 3.8 3.8 0 0 1-1.2-3c0-.9.2-1.6.6-2.2.4-.5 1-1 1.6-1.3a8 8 0 0 1 2.4-.7v-.1c-1.2-.2-2-.6-2.6-1-.6-.6-.9-1.2-.9-2 0-.6.2-1 .4-1.4.3-.4.6-.7 1.1-1l2-.4v-.4l4 1h-1.6c-1 0-1.7.1-2 .3a1 1 0 0 0-.6 1c0 .5.2.9.8 1.1.5.3 1.4.5 2.7.6l5 .5a9 9 0 0 1 5 1.6c1 .9 1.4 2.1 1.4 3.7v.1c0 1.3-.3 2.4-1.1 3.2a6 6 0 0 1-3.3 1.8c-1.4.4-3.1.6-5 .6h-.7Zm.3-16.9c1.2 0 2.2-.2 3-.5a4 4 0 0 0 1.8-1.6c.4-.7.6-1.6.6-2.6v-.5a5 5 0 0 0-.6-2.6 4 4 0 0 0-1.8-1.6 7 7 0 0 0-3-.5c-1.3 0-2.4.2-3.2.6-.8.4-1.4 1-1.8 1.6-.3.7-.5 1.6-.5 2.5v.5c0 1 .2 1.9.6 2.6a4 4 0 0 0 1.8 1.6c.9.3 1.9.5 3 .5Z"/></svg>