<svg xmlns="http://www.w3.org/2000/svg" fill="none" viewBox="0 0 301 82"><path fill="#3083ff" d="M65.2 16.3V0H49v16.3H32.6v16.3H49V49h16.3V32.6h16.3V16.3z"/><path fill="#083b87" d="M32.6 49V32.5H16.3V49H0v16.3h16.3v16.3h16.3V65.2H49V49z"/><path fill="#000" d="M120.2 30v-5.6h6q2.6 0 3.8-1.4 1.3-1.5 1.3-4v-5.5q0-2.5-1.3-4-1.3-1.2-3.8-1.3h-6V2.7h6.2q5.9 0 8.7 2.8 3 2.7 2.9 8V19q0 5.3-2.9 8.1-2.8 3-8.7 2.9zm-4.7 0V2.7h6.6V30zM141.4 30V9h6.5v21zm3.2-23Q143 7 142 6T141 4v-.2q0-1.5.9-2.3t2.6-.8 2.7.8.8 2.3V4a3 3 0 0 1-.8 2.2q-.9.9-2.7.9M159.3 30.5a21 21 0 0 1-8-1.5l-.5-5.5q1.6.7 3.6 1.3 2 .5 4.4.5 1.8 0 2.6-.4t.8-1.2v-.1q0-.6-.4-1l-1.4-.6q-.9-.3-2.7-.7-2.7-.7-4.2-1.5-1.5-1-2.2-2-.6-1.4-.6-3v-.2q0-3 2.2-4.6t6.5-1.6a20 20 0 0 1 7.7 1.5l.5 5.1a20 20 0 0 0-7.3-1.5l-2 .1-1 .5q-.3.3-.3.8t.3 1l1.3.6q1 .4 2.6.8 2.7.6 4.3 1.3t2.3 1.9.8 3v.3q0 3.4-2.3 5a12 12 0 0 1-7 1.7M180.3 30.5q-5 0-7.4-2.6a11 11 0 0 1-2.4-7.4v-2.2q0-4.6 2.4-7.3 2.3-2.6 7.4-2.6a14 14 0 0 1 6 1.4l.6 5.4q-1-.7-2.3-1t-2.9-.4q-2.4 0-3.5 1.2-1.2 1.3-1.1 3.4v1.8q0 2.4 1.1 3.6T182 25a10 10 0 0 0 5.2-1.3l-.5 5.4q-1.2.6-2.8 1t-3.5.4M200 30.5q-5.7 0-8.5-2.6-2.7-2.5-2.7-7.4v-2.2q0-4.8 2.6-7.4t7.4-2.6q3.3 0 5.5 1.2 2.3 1 3.3 3.2 1 2 1 5v.6l-.2 3.3h-5.9l.2-4.4q0-1.2-.5-2.2-.3-.9-1.2-1.3t-2.2-.5q-1.9 0-2.9 1-.8 1.2-.8 3v4.2q0 .8.2 1.5.3.8 1 1.3t1.8.9 3 .3a19 19 0 0 0 7.3-1.4l-.6 4.9q-1.4.7-3.4 1.2-2 .3-4.4.4m-7.7-9v-4H207v4zM218.2 18.2l-1.8-4h1.6q.5-2.6 2-4 1.5-1.5 4.1-1.6h.9l.8.2.3 6.6-1-.1-1.3-.1q-2 0-3.5.8-1.5.7-2 2.2M211.8 30V9h6.2l-.3 6.7h.6V30zM241.8 30V17.6q0-1.1-.3-2t-1-1.3-2-.4a4 4 0 0 0-3 1.3l-.8 1.4-1-3h1.1q.4-1.5 1.2-2.7.8-1 2.1-1.7t3.5-.7q2.3 0 3.8.9t2.2 2.7.7 4.5V30zm-13.5 0V9h6.5l-.2 5.2.2.6V30zM271.6 30.4a8 8 0 0 1-3.2-.6q-1.3-.6-2.2-1.6-.8-1.1-1.2-2.5h-1.4l1.2-4q0 1.8.8 3 .7 1 2 1.7 1.2.5 2.7.5 2.4 0 3.7-1.3 1.2-1.5 1.2-4.2v-4q0-2.5-1.3-4-1.2-1.5-3.6-1.4-1.5 0-2.6.5a5 5 0 0 0-3 3.7l-.9-2.8h1.2q.4-1.4 1.2-2.4.8-1.1 2.1-1.8t3.5-.6q3.8 0 5.7 2.3 2 2.4 2 6.9v3.3q0 4.5-2 7-2 2.3-5.9 2.3m-10.9-.4V1.7h4.2v22l-.1 1.4.1 4.9zM292.9 26.3l-2.3 1 6-18.2h4.2l-9.5 28.2h-4.2l3.3-9.8 1.9 1.6h-4.8L281 9h4.3l5.2 17.2zM122.5 45.6l10 22.6h.3l-.2-11.8V45.6h4.2v27.3h-6.3l-10.2-23h-.2l.1 12.3V73h-4.1V45.6zM151.2 73.3q-5.1 0-7.5-2.3-2.5-2.5-2.5-6.9v-3.4q0-4.4 2.3-6.9 2.3-2.4 6.8-2.4 3 0 5 1.1a7 7 0 0 1 3 3.1q1 2.1 1 4.8v.8L159 64h-3.9v-4a7 7 0 0 0-.5-2.8q-.5-1.2-1.6-1.8t-2.8-.7q-2.6 0-3.8 1.4a6 6 0 0 0-1.2 4v4.4q0 1.2.4 2.1.3 1 1.1 1.7t2 1q1.3.4 3 .4 2 0 3.8-.5T159 68l-.3 3.6q-1.4.8-3.3 1.4-1.9.4-4.1.4m-7.8-9.2v-3.2h14.8v3.2zM166.2 72.9l-4.9-21h4.3l3.7 18h.4l3.8-17.4h5.8l3.9 17.3h.3l3.7-17.8h4.3l-4.9 20.9h-6.3l-3.1-14.5-.6-2.9h-.4l-.5 2.9-3.2 14.5zM202.8 66.5q-4.4 0-6.8-1.8a7 7 0 0 1-2.3-5.4V59q0-2.3 1-3.8a6 6 0 0 1 2.8-2.6 14 14 0 0 1 5.3-1l10.9-.4v3.3l-5.8-.2v.2q1.2.3 2 1t1.3 1.7.4 2.3v.3a6 6 0 0 1-2.2 5q-2.2 1.8-6.6 1.7m-.2 11h.6q1.8 0 3-.2 1.3-.2 2-.8t.6-1.5q0-1.2-.7-1.7t-2.7-.7l-6-.6h1l-1.8.5q-.8.4-1.2 1t-.4 1.3.6 1.7 2 .8 3 .3m-.2 3.4q-3 0-5-.5a7 7 0 0 1-3.2-1.6 4 4 0 0 1-1.1-3q0-1.2.5-2t1.5-1.4l2.1-.7v-.2q-1.5-.3-2.3-1-.7-.8-.7-2 0-.8.3-1.3.4-.7 1.1-1t1.9-.5v-.4l4.4 1h-1.6q-1.4 0-1.8.3a1 1 0 0 0-.4.9q0 .6.7 1l2.4.4 5 .6q3.5.3 5 1.6t1.6 4q0 2.1-1.2 3.3-1.2 1.3-3.3 1.9a19 19 0 0 1-5.2.6zm.3-17.4a7 7 0 0 0 2.8-.5q1.1-.4 1.6-1.5.6-1 .6-2.3v-.3q0-1.5-.6-2.3-.5-1-1.6-1.5-1-.5-2.7-.5h-.1q-1.8 0-2.9.6t-1.6 1.4-.5 2.3v.3q0 1.5.5 2.3.6 1 1.7 1.5t2.8.5M225 73.3q-5 0-7.5-2.3-2.5-2.5-2.5-6.9v-3.4q0-4.4 2.3-6.9 2.3-2.4 6.8-2.4 3 0 5 1.1a7 7 0 0 1 3 3.1q1 2.1 1 4.8v.8L233 64H229l.1-4a7 7 0 0 0-.5-2.8q-.6-1.2-1.7-1.8t-2.8-.7q-2.6 0-3.7 1.4a6 6 0 0 0-1.2 4v4.4q0 1.2.3 2.1.4 1 1.2 1.7t2 1 3 .4q2 0 3.8-.5 1.6-.5 3.3-1.4l-.4 3.6q-1.4.8-3.3 1.4-1.8.4-4.1.4m-7.8-9.2v-3.2H232v3.2zM250.8 72.9v-13q0-1.5-.4-2.6-.4-1-1.3-1.7t-2.6-.6q-1.6 0-2.7.5A5 5 0 0 0 242 57q-.7 1-1 2.2l-.6-3h.9q.3-1.2 1.2-2.3.7-1.1 2.2-1.8 1.3-.6 3.4-.6 2.4 0 4 1 1.5.9 2.2 2.6t.7 4.4v13.4zm-13.8 0v-21h4.2l-.2 5 .2.2V73zM267.3 73.3q-2.5 0-4-.8-1.5-.7-2.2-2.3-.6-1.5-.7-3.8V53.7h4.2v12.2q0 2 .9 2.9t2.9.9a11 11 0 0 0 4.5-1l-.4 3.5q-1 .5-2.4.8t-2.8.3m-10.1-17.7v-3.4h15.5l-.4 3.4zm3.3-3v-5.8l4.1-.4-.1 6.2z"/></svg>