<svg xmlns="http://www.w3.org/2000/svg" fill="none" viewBox="0 0 374 82"><path fill="#3083FF" d="M65.2 16.5V.2H49v16.3H32.6v16.3H49v16.4h16.3V32.8h16.3V16.5H65.2Z"/><path fill="#083B87" d="M32.6 49.2V32.8H16.3v16.4H0v16.3h16.3v16.3h16.3V65.5H49V49.2H32.6Z"/><path fill="#000" d="M115.5 30V2.2h6.9v28h-6.9Zm4-9.7v-5.7H134v5.7h-14.5Zm-2-12.4V2h16.9v5.8h-17Zm20 22.1V8.7h6.7V30h-6.7ZM141 6.6c-1.3 0-2.2-.3-2.8-.8-.5-.6-.8-1.4-.8-2.4v-.1c0-1 .3-1.8.8-2.3.6-.6 1.5-.9 2.8-.9 1.2 0 2.1.3 2.7.9.6.5.9 1.3.9 2.3v.1a3 3 0 0 1-1 2.4c-.5.5-1.4.8-2.6.8ZM162.2 30V17.5a6 6 0 0 0-.3-2c-.2-.6-.6-1-1-1.4a4 4 0 0 0-2-.4c-.7 0-1.3.1-1.8.4-.6.2-1 .5-1.4 1l-.8 1.3-1-3h1.1c.3-1 .6-2 1.2-2.7.5-.8 1.3-1.4 2.2-1.9A8 8 0 0 1 162 8c1.6 0 2.9.4 4 1 1 .6 1.7 1.5 2.2 2.7.5 1.3.7 2.8.7 4.6v13.8h-6.7Zm-13.9 0V8.7h6.7l-.2 5.3.2.7V30h-6.7Zm33.8.6c-3.4 0-6-.9-7.6-2.7a10.7 10.7 0 0 1-2.5-7.5V18c0-3.2.8-5.7 2.5-7.4C176 8.9 178.7 8 182 8a14.5 14.5 0 0 1 6.2 1.4l.6 5.5-2.4-1c-.8-.3-1.8-.4-2.9-.4-1.7 0-3 .4-3.7 1.2-.8.8-1.1 2-1.1 3.5v1.9c0 1.6.4 2.8 1.2 3.6.8.9 2 1.3 3.8 1.3a10.3 10.3 0 0 0 5.3-1.4l-.5 5.6a15.1 15.1 0 0 1-6.5 1.4Zm19.4.1c-3.5 0-6.2-.9-8-2.6a9.8 9.8 0 0 1-2.6-7.3V18c0-3.2.9-5.7 2.7-7.4 1.7-1.8 4.4-2.7 7.9-2.7 3.4 0 6 .9 7.8 2.7A9.9 9.9 0 0 1 212 18v2.8c0 3.1-.9 5.5-2.7 7.3-1.7 1.7-4.4 2.6-7.8 2.6Zm0-5.3c1.2 0 2.1-.4 2.8-1.1.6-.8 1-1.9 1-3.2v-3.4c0-1.5-.4-2.6-1-3.4-.7-.7-1.6-1-2.8-1-1.3 0-2.2.3-3 1-.6.8-.9 2-.9 3.4V21c0 1.3.3 2.4 1 3.2.7.7 1.6 1 2.9 1Zm27.7 4.6V17.5a6 6 0 0 0-.3-2c-.2-.6-.6-1-1-1.4a4 4 0 0 0-2-.4 4 4 0 0 0-1.9.4c-.5.2-1 .5-1.3 1-.4.3-.6.8-.8 1.3l-1-3h1.1c.2-1 .6-2 1.2-2.7.5-.8 1.2-1.4 2.2-1.9a8 8 0 0 1 3.5-.7c1.6 0 3 .4 4 1s1.8 1.5 2.3 2.7c.5 1.3.7 2.8.7 4.6v13.8h-6.7Zm-14 0V8.7h6.8l-.3 5.3.3.7V30h-6.7Zm38.5 0V17.5a6 6 0 0 0-.4-2c-.2-.6-.5-1-1-1.4-.5-.3-1.1-.4-2-.4-.7 0-1.3.1-1.8.4-.5.2-1 .5-1.3 1-.4.3-.7.8-.8 1.3l-1-3h1c.3-1 .7-2 1.2-2.7.6-.8 1.3-1.4 2.2-1.9a8 8 0 0 1 3.6-.7c1.6 0 3 .4 4 1s1.7 1.5 2.2 2.7c.5 1.3.8 2.8.8 4.6v13.8h-6.7Zm-14 0V8.7h6.7l-.2 5.3.3.7V30h-6.7Zm35.3.6c-4 0-6.9-.9-8.8-2.6a10.3 10.3 0 0 1-2.8-7.6V18c0-3.3 1-5.8 2.7-7.5 1.7-1.8 4.3-2.7 7.6-2.7 2.3 0 4.2.4 5.7 1.2 1.5.7 2.6 1.8 3.4 3.2.7 1.5 1.1 3.1 1.1 5.1v.8a17.2 17.2 0 0 1-.3 3.3h-6a48.3 48.3 0 0 0 0-4.5c0-.9 0-1.6-.3-2.2a3 3 0 0 0-1.3-1.4c-.6-.3-1.3-.5-2.3-.5a4 4 0 0 0-3 1.1c-.5.7-.8 1.7-.8 3v4.3c0 .5 0 1 .3 1.6.2.5.5.9 1 1.3.4.3 1 .6 1.8.8.9.2 2 .4 3.2.4a19.5 19.5 0 0 0 7.4-1.5l-.6 5c-1 .6-2.2 1-3.5 1.3-1.4.3-2.9.4-4.5.4Zm-8-9.1v-4.2h15.3v4.2H267Zm29.4 9.1c-3.4 0-6-.9-7.6-2.7a10.7 10.7 0 0 1-2.5-7.5V18c0-3.2.8-5.7 2.5-7.4 1.7-1.8 4.2-2.7 7.6-2.7a14.5 14.5 0 0 1 6.3 1.4l.5 5.5-2.3-1c-1-.3-1.9-.4-3-.4-1.7 0-2.9.4-3.7 1.2-.7.8-1.1 2-1.1 3.5V20c0 1.6.4 2.8 1.2 3.6.8.9 2 1.3 3.8 1.3a10.3 10.3 0 0 0 5.3-1.4l-.5 5.6a15.1 15.1 0 0 1-6.5 1.4Zm18.9-.1c-1.9 0-3.4-.3-4.6-.8a5 5 0 0 1-2.4-2.6 11 11 0 0 1-.8-4.3v-12h6.7v11c0 1 .3 1.8.7 2.3.5.4 1.4.7 2.7.7a9.6 9.6 0 0 0 4-.9l-.5 5.6-2.6.7c-1 .2-2 .3-3.2.3ZM304.6 14V8.6h16.9l-.6 5.3h-16.3Zm3-4.8V3.6l6.7-.7-.3 6.2h-6.4Zm36.2 21.3c-1.4 0-2.5-.2-3.5-.6a7 7 0 0 1-3.6-4.7h-1.1l1-3.4a6 6 0 0 0 1 3.2c.5.9 1.2 1.5 2 2 1 .3 2 .6 3.1.6 1.8 0 3.2-.6 4.1-1.6 1-1 1.4-2.6 1.4-4.7v-4c0-2-.4-3.6-1.4-4.6-1-1-2.3-1.6-4.1-1.6-1.1 0-2 .2-3 .6a6 6 0 0 0-3.1 4.3l-.8-2.5h1a8 8 0 0 1 1.1-2.7 6 6 0 0 1 2.4-1.9c1-.4 2.2-.7 3.6-.7 2.6 0 4.6.8 6 2.4 1.3 1.6 2 4 2 7V21c0 3-.8 5.4-2.1 7-1.4 1.6-3.4 2.4-6 2.4Zm-10.6-.4V1h3.5v22.7l-.1 1 .1 5.3h-3.5Zm32.1-3.3-1.9.8 6.4-18.9h3.7l-10 28.9h-3.7l3.4-9.8 1.6 1.4h-4l-7.1-20.5h3.7l5.8 18h2Zm-243.5 19L133.2 70h.3l-.1-12.2v-12h3.5v28h-5.4L120 49.5h-.3l.1 12.8v11.5h-3.5v-28h5.5Zm29.9 28.5c-3.3 0-5.8-.8-7.4-2.4-1.7-1.6-2.5-3.9-2.5-6.8v-3.8c0-3 .8-5.4 2.3-7 1.6-1.6 3.8-2.4 6.8-2.4 2 0 3.6.4 5 1.1a7 7 0 0 1 3 3.1c.6 1.4 1 3 1 4.9v.8a14.9 14.9 0 0 1-.2 2.7h-3.3a46.5 46.5 0 0 0 0-3.7c0-1.3-.1-2.4-.6-3.3-.4-.9-1-1.5-1.8-2a6 6 0 0 0-3.1-.7c-1.9 0-3.3.5-4.2 1.6-1 1-1.4 2.6-1.4 4.5v4.5c0 1 .2 1.7.4 2.4a4.8 4.8 0 0 0 3.4 3c1 .4 2 .5 3.1.5a13.3 13.3 0 0 0 7.3-2l-.3 3c-1 .6-2 1-3.3 1.5-1.3.3-2.7.5-4.2.5Zm-8-9.8V62h15.2v2.6h-15.2Zm23.8 9.3-5.3-21.3h3.7l4.2 18.7h.5L175 53h5l4.4 18.2h.4l4.2-18.7h3.7l-5.3 21.3H182l-3.7-15.2-.7-3h-.3l-.7 3-3.6 15.2h-5.5Zm36.8-6.4c-3 0-5.2-.6-6.7-1.9a6.6 6.6 0 0 1-2.4-5.4v-.6c0-1.5.3-2.7 1-3.8.6-1.1 1.5-2 2.9-2.6 1.3-.6 3-1 5.2-1l11-.4v2.8l-6.5-.2v.2a6 6 0 0 1 2.4 1 4 4 0 0 1 1.5 1.9c.3.7.5 1.6.5 2.6v.5c0 2.2-.8 4-2.3 5.1-1.5 1.2-3.7 1.8-6.6 1.8Zm-.2 11.8h.6c1.3 0 2.4-.1 3.3-.3a5 5 0 0 0 2.2-1c.6-.4.8-1 .8-1.6v-.1c0-.8-.3-1.5-.9-1.9-.6-.4-1.6-.7-3-.8l-6.1-.6h1a9 9 0 0 0-2.2.5c-.6.3-1 .7-1.4 1-.4.5-.5 1-.5 1.7 0 .8.2 1.4.7 1.8.5.5 1.3.8 2.2 1 1 .2 2 .3 3.3.3ZM204 82c-1.9 0-3.6-.2-5-.5a6.8 6.8 0 0 1-3.2-1.6 3.9 3.9 0 0 1-1.2-3c0-1 .2-1.6.7-2.2.4-.6 1-1 1.6-1.4.8-.3 1.6-.6 2.4-.7v-.1c-1.2-.2-2-.6-2.6-1-.6-.6-.9-1.2-.9-2a2.7 2.7 0 0 1 1.5-2.5 6 6 0 0 1 2-.4v-.4l4.1 1h-1.6c-1 0-1.7.1-2.1.4a1 1 0 0 0-.6 1c0 .5.3.8.8 1 .6.3 1.5.5 2.8.7l5.2.5c2.3.2 4 .8 5 1.6 1 .9 1.6 2.1 1.6 3.8v.1c0 1.3-.4 2.4-1.2 3.3-.8.8-2 1.4-3.4 1.8a20 20 0 0 1-5.2.6h-.7Zm.4-17.2c1.2 0 2.2-.2 3-.5.8-.4 1.4-1 1.9-1.7.4-.7.6-1.6.6-2.6v-.6c0-1-.2-1.8-.6-2.6a4 4 0 0 0-1.8-1.6c-.8-.4-1.8-.5-3-.5h-.2c-1.3 0-2.4.2-3.2.6-.8.4-1.4 1-1.8 1.7-.4.7-.6 1.5-.6 2.5v.5c0 1 .2 2 .6 2.6a4 4 0 0 0 2 1.6c.8.4 1.8.6 3 .6Zm22.5 9.5c-3.3 0-5.8-.8-7.4-2.4-1.7-1.6-2.5-3.9-2.5-6.8v-3.8c0-3 .8-5.4 2.3-7 1.5-1.6 3.8-2.4 6.7-2.4 2 0 3.7.4 5 1.1a7 7 0 0 1 3 3.1c.7 1.4 1 3 1 4.9v.8a14.9 14.9 0 0 1-.1 2.7h-3.3a48.2 48.2 0 0 0 0-3.7c0-1.3-.2-2.4-.6-3.3a4 4 0 0 0-1.9-2 6 6 0 0 0-3-.7c-2 0-3.3.5-4.2 1.6-1 1-1.4 2.6-1.4 4.5v4.5c0 1 .2 1.7.4 2.4a4.8 4.8 0 0 0 3.4 3c.9.4 2 .5 3.1.5a13.4 13.4 0 0 0 7.3-2l-.3 3c-1 .6-2 1-3.3 1.5-1.3.3-2.7.5-4.2.5Zm-8-9.8V62H234v2.6h-15Zm34.8 9.3V60.5c0-1.1-.2-2.1-.5-3a4 4 0 0 0-1.5-1.9 6 6 0 0 0-3-.7c-1 0-2 .2-2.9.7a5.5 5.5 0 0 0-3 4.1l-.7-2.5h.8c.2-1 .6-1.8 1.2-2.6a6 6 0 0 1 2.4-2c1-.4 2.2-.6 3.6-.6 1.7 0 3.1.3 4.1 1 1 .6 1.9 1.5 2.3 2.7.5 1.2.8 2.7.8 4.4v13.7h-3.6Zm-14.4 0V52.5h3.6l-.1 5 .1.3v16h-3.6Zm30.7.4c-1.6 0-3-.2-4-.7-1-.5-1.7-1.3-2.1-2.3-.5-1-.7-2.2-.7-3.7V54h3.5v13c0 1.5.3 2.5 1 3.2.6.6 1.7 1 3.2 1a10.6 10.6 0 0 0 4.8-1.1l-.3 3a13.2 13.2 0 0 1-5.3 1.1Zm-10.3-18.6v-2.8h15.8l-.4 2.8h-15.4Zm3.5-2.5v-6l3.6-.4-.2 6.4h-3.4Z"/></svg>